<!-- Generator: Adobe Illustrator 21.1.0, SVG Export Plug-In  -->
<svg version="1.1" xmlns="http://www.w3.org/2000/svg" xmlns:xlink="http://www.w3.org/1999/xlink" xmlns:a="http://ns.adobe.com/AdobeSVGViewerExtensions/3.0/" x="0px" y="0px" width="1000.93px" height="817.272px" viewBox="0 0 1000.93 817.272" style="enable-background:new 0 0 1000.93 817.272;" xml:space="preserve">
<style type="text/css">
	.st0{fill:#009EE3;}
	.st1{fill:#FF8300;}
	.st2{fill:#FCBF00;}
	.st3{fill:#FFFFFF;}
</style>
<defs>
</defs>
<g>
	<polygon class="st0" points="0,147.139 587.385,100.378 547.073,590.044 352.966,614.7 190.33,787.073 186.536,636.547    45.334,660.833  "/>
</g>
<polygon class="st1" points="1000.93,86.145 273.759,156.716 309.08,654.182 558.95,642.279 723.729,817.272 728.656,636.869   952.623,629.863 "/>
<g>
	<polygon class="st2" points="795.238,21.001 80.588,0 128.149,571.467 334.795,560.121 477.8,676.81 480.896,553.732    758.473,539.916  "/>
</g>
<g>
	<path class="st3" d="M323.565,558.805c-3.354,3.743-8.473,7.122-15.377,10.155c-6.902,3.017-15.798,5.006-26.673,5.957   c-10.042,0.879-18.827,0.148-26.359-2.174c-7.531-2.33-13.709-5.741-18.515-10.237c-4.814-4.503-8.473-9.89-10.982-16.167   c-2.51-6.285-3.767-13.108-3.767-20.487c-40.588-2.064-60.876-24.359-60.877-66.874l0.001-288.798   c0-24.242,6.589-43.173,19.77-56.802c13.179-13.62,33.576-21.646,61.191-24.062c27.613-2.417,48.109,2.032,61.504,13.328   c13.386,11.304,20.084,29.073,20.084,53.315l-0.001,288.799c0.001,20.734-5.441,38.157-16.317,52.283   c-10.885,14.128-28.457,22.961-52.718,26.483c0,6.11,2.51,11.201,7.531,15.259c5.021,4.057,13.592,5.555,25.732,4.492   c15.896-1.391,27.819-6.831,35.773-16.305V558.805z M275.867,160.18c0-22.167-11.297-32.263-33.89-30.286   c-22.183,1.941-33.263,13.994-33.264,36.161l0.001,291.335c-0.001,22.167,11.08,32.281,33.262,30.341   c22.594-1.977,33.891-14.049,33.891-36.216V160.18z"/>
	<path class="st3" d="M471.052,507.742c-0.422-3.825-0.736-7.659-0.943-11.512c-0.215-3.843-0.312-7.878-0.312-12.094   c-5.865,9.3-13.494,16.728-22.908,22.294c-9.414,5.567-20.19,8.881-32.321,9.942c-33.479,2.929-50.208-14.399-50.208-51.997   V190.861l43.306-3.789l-0.001,267.72c0,9.84,1.883,16.526,5.648,20.059c3.766,3.54,9.826,4.938,18.201,4.204   c6.688-0.585,13.07-2.634,19.142-6.153c6.06-3.512,10.766-8.93,14.12-16.255l0.001-274.57l43.304-3.789l0.001,326.216   L471.052,507.742z"/>
	<path class="st3" d="M555.769,132.481V66.605l43.305-3.789v65.876L555.769,132.481z M555.769,500.33V174.114l43.304-3.789   l0.001,326.217L555.769,500.33z"/>
	<path class="st3" d="M639.233,493.028V459.3l88.491-264.394l-87.235,7.633v-35.836l128.658-11.256l0.001,33.728l-86.61,263.176   l85.981-7.522v36.89L639.233,493.028z"/>
	<path class="st3" d="M796.726,479.529v-33.728l88.491-264.394l-87.235,7.633v-35.836l128.658-11.256l0.001,33.728L840.03,438.85   l85.981-7.522v36.89L796.726,479.529z"/>
</g>
<script xmlns=""/></svg>